<mxfile host="app.diagrams.net" modified="2021-09-02T02:18:42.371Z" agent="5.0 (Windows NT 10.0; Win64; x64) AppleWebKit/537.36 (KHTML, like Gecko) Chrome/92.0.4515.159 Safari/537.36" etag="paX20N-gfOx8L1z1eApm" version="15.0.5" type="github">
  <diagram id="hIpKFj0DX9C-Gixlvbks" name="Page-1">
    <mxGraphModel dx="2170" dy="985" grid="0" gridSize="10" guides="1" tooltips="1" connect="1" arrows="1" fold="1" page="1" pageScale="1" pageWidth="2336" pageHeight="1654" math="0" shadow="0">
      <root>
        <mxCell id="0" />
        <mxCell id="1" parent="0" />
        <mxCell id="2iNg4MN7d1wqHR_g2wRO-16" value="" style="rounded=0;whiteSpace=wrap;html=1;dashed=1;strokeWidth=2;" vertex="1" parent="1">
          <mxGeometry x="580" y="110" width="610" height="260" as="geometry" />
        </mxCell>
        <mxCell id="2iNg4MN7d1wqHR_g2wRO-22" style="edgeStyle=none;rounded=0;orthogonalLoop=1;jettySize=auto;html=1;exitX=1;exitY=0.5;exitDx=0;exitDy=0;entryX=0.25;entryY=1;entryDx=0;entryDy=0;" edge="1" parent="1" source="mtnY_jctjg4N5cMxts-R-5" target="2iNg4MN7d1wqHR_g2wRO-7">
          <mxGeometry x="580" y="110" as="geometry" />
        </mxCell>
        <mxCell id="mtnY_jctjg4N5cMxts-R-5" value="&lt;font style=&quot;font-size: 19px&quot;&gt;&lt;b&gt;订阅器&lt;/b&gt;&lt;/font&gt;" style="rounded=0;whiteSpace=wrap;html=1;" parent="1" vertex="1">
          <mxGeometry x="600" y="250" width="120" height="30" as="geometry" />
        </mxCell>
        <mxCell id="2iNg4MN7d1wqHR_g2wRO-5" value="" style="group" vertex="1" connectable="0" parent="1">
          <mxGeometry x="750" y="180" width="180" height="161" as="geometry" />
        </mxCell>
        <mxCell id="2iNg4MN7d1wqHR_g2wRO-6" value="" style="shape=image;imageAspect=0;aspect=fixed;verticalLabelPosition=bottom;verticalAlign=top;image=data:image/png,iVBORw0KGgoAAAANSUhEUgAAADAAAABBCAYAAACXfCfjAAAJMUlEQVRoge2a12tUQRTGTzZr77333jAW7NgiKrELgj4Y9EURxQ5R/APE8qDig6KI4pOKYkNFRVTs2HvvLcbea8b5HZjlZrMpa7LuFfxgcje7e2dPmXvOd85MgrGQfxjBgk6A/l+/fpVv377Jjx8/5NevXzoyMzP180AgIMFgUBITE/VarFgxKVGiRIEFd8i3Ai9fvpTHjx9LRkaGPHnyRB4+fKjvvX37VsfHjx/l8+fPqsT379/l58+fqlyRIkWkaNGiOhC+XLlyUrZsWalQoYJUrVpVatSoIbVr19ZrnTp19P1okJDTEkKYGzduyKlTp+TSpUty+fJluX//vgoIsCxClSlTRipWrKijdOnSUrx4cbU0gickJKgyeMd56MWLF6o4CuM5fh6PcV+TJk2kYcOG0qZNG+nWrZu0atVK349KAYTev3+/7Nq1S4Vn8vLly+vETZs21Wv9+vWlefPmUqVKlZB1ERjBUSwc/ARLioEiKMW8ePLOnTty69YtvWKgBw8eyKtXr3SeLl26yKBBg6RXr17SokWL3BXAMuvWrZM1a9bI06dPQ1Zo37693ozQuD+WePfunf729evX5cSJE3L48GG5cuWKLq3x48fL6NGjdbmFW8fcvn3bpKSkmFKlSplhw4aZ7du3G6uQiTeQwa4EM3LkSGO9a5KTk83Vq1ezfIe1aMaOHWvsMjHLli0z1sVxEjdn2CVnlixZYuwKMKmpqebDhw+hz+TcuXOmZs2aZtKkSXEUMX+YMWOGscvJ2KASei9ANOCh4oF6/fp1TNd4QWCtrs8HQYAQ7RDgaSeC2HUvEydOlNOnT4dCpR+AcZEJ2TZs2KAJ0RvpgtYL+gbR5uzZszJkyBAZPHiwDB06VDp27KgJJh54/vy5XLhwQbZu3So7duzQfICMhFjjifyqAC4ZMWKEDB8+XJYvXy47d+6U9evXa6zv27evtGvXTsNqtWrVpGTJkkoFiP2FAbxN0mQQykmaZ86ckaNHj2o4JVEOHDhQpk6dqvnJBpoQTVEFvJO1bt1aVqxYwYMtBw8elCNHjsjmzZtVGbIqiatRo0ZSq1YtqVevnv7vsjA5AuUc72Fwj+NGLiO/efNGqQfZGCuzrkleJDGeQb6HgTAacb9nz55qeVbJvn37shkgpIDXLdzMmDBhgqSnp4vNE2Ljr2ZpMubevXtD2dKRNCc483DFQyiAd7Ey7zMc4XPPWeXKlaVu3boqKJneDbyN9b0wEVhPrmTOJjalDoz+/fvrBFjv/fv3ymWwIASP/1kCX7580cFnnz59UgXckmMurgy8hRerV6+uxA5BoSuRaEheiIpOIxBs0TFGyFa8Eb3KPsN/BWIBwiTPUH7gOwWIetOmTdO8RLTLCwWuiQsbsAGSKSDEkkgJ0Tkh5AEijB9ADujdu7eGWYTPK7QG/SK4A5ke0sZSgsp4FSBBhkMV4KE5efKkZtdKlSr9TXkjgm4FwwvKTWp0MrjX6KoemkHgpkyZogTKb4DCQObwDMhGp1GAlsaxY8e0CwCJ6tevn7Rs2VI5yd8GMkHyrl27JgcOHJBNmzYpEaS5AGXJRqdZQgg9YMAAZaNr166VlStXKjvt2rWrJCUl6dqEdMFAC/u5gdzBUmGlN2/eVDaMMelFYVyMSUHDMkeuLHTaPQN0zbp3767j/PnzWqERh1EGggbp4vmw9bN6i4FS8CKKDe53fSHHTB2dhpHyG6xf5qKhBZ2GQtMTunfvnjx79ky7fpBFCCBzp6WlSXJysnTo0EHnQ7FwRhoKsF6tsDhj1qxZWmDgStYh1oF98hpBcCcCOkaJIq5jhxJeOs0VwbE09/I534OlYgTCZp8+fTTyUDzhfRTxwitjNgUigcnpjjEA65AUD40mYjGIDtBnR6NRiu9wxWoohXKuqYtQ/I83UZwlSdnKZ3m1ESMhqkyMEAwqsNzgiheAF2KZa2JCJWIttBeBSGXavwTfsVHgHvj8wHcKEBjmzZsnY8aM0TZKXvAdnaYLt3DhQn1N8U9ojUTiHHxHp+k3sS9Bx8L1g3ID2cZejG8UIJGx0UKmpuvhlStSYRMMBBJtNs3UPiTJqDB3EP8UjRs31uEFDzWsgM6d1ysBMZm6xrZs2SKzZ89WmuA3wJegNXgmPMcoG6W9DtPcuHGjPvmjRo3SgTvJvPEAFoeDbdu2TesAyB58CetnodP8gZCNGzdOmSgF9apVq5S2du7cWXr06KE8nFqVKonIkFuR/Scg7tOeREgII33Y48ePa5ca0OZftGiRsuTVq1dHrgdY+7SxUYKbDx06pLuEixcvVoEdY2S3kl1DCBhEDEIGN4KcOTrt3YRgbrdz7wift0P96NEjZbhcqQcgh8hEPzY1NVXpNFGJPWiU8/KskAecFwBMkUYugx+hG40lqEfv3r2rV9wKRYYOO/rMUnO1gKPKwO3aowCvuc91qHmf7+JZKj+Mh7BYHCOF1+dORi9yXQt0jCkmGLTasaDr6bMZwSBzOvrsNiv4n9fOswxHp6HM0HSEQ3C8iGcplGJOpxGgQYMGOvKC25kv7OclHDGbneX0J/3+qH8n5r8QY/hWAR74/MB3ChBGFyxYoEGDncq84Ds6zSmVOXPm6Gu80KlTJ2UKOcF3dJpwCoUh1IY3dyPJGHSZzS8K0BMiUZJrXEPLIZwHgSAJhV4NXS/6PvEib164veJwcPgJSpFl/5izONOnT9cDRTNnzjTp6emxPjUTNSzJM2lpacZmajN37lw9P+SgJ7YyMjLM5MmTjdXOJCUlmfnz5xtb4BibSeMmtOVJKoNloSqTtbrKaJdWlu+FzszBv3fv3i1Lly7VfSoYJscNoNNccWm282qFDNed5vcJoVSJEEoiEd3plJSUbP3SbKcWOVhET37Pnj162IOHiXAGvaVjTNENU4QPQcaYkHXpCJs7O+HOTbjDHjBPBvND+KDV8H/mp0vNOVQqL14zF9EI49GVoL2e04HDHM+N8jZtbyxCmXnx4kXdveFEiaPEeA1BqQkY/DAx2w3InBMcIzC4H+H5zH0PxQkmzZo1k7Zt22r4pH2fH9KYowLhQGCsRzHCBhzWoyChkoJWO8FQyhUvTO3dO8BTbJ3iOSIJVJrXtFAomDBCbkmrQAr4Fb7jQtHivwLxxm/3vZtTx1Th/wAAAABJRU5ErkJggg==;" vertex="1" parent="2iNg4MN7d1wqHR_g2wRO-5">
          <mxGeometry x="82.56054756054756" y="5.103251633421834e-14" width="97.43945243945242" height="131.95156195156196" as="geometry" />
        </mxCell>
        <mxCell id="2iNg4MN7d1wqHR_g2wRO-7" value="" style="shape=image;imageAspect=0;aspect=fixed;verticalLabelPosition=bottom;verticalAlign=top;image=data:image/png,iVBORw0KGgoAAAANSUhEUgAAAGAAAABgCAYAAADimHc4AAAABmJLR0QA/wD/AP+gvaeTAAAbLUlEQVR4nO2deXiV1bXwf2u/5yRhCIMVCzknYcjJxHwCikMdUIYkiLa21arVDopaq3LrZ2tbpaK29mur1Vp7OzhdtfeiaK1USSKIcQBKNZAABhJywmBOQMQBGTOcd6/7x3uCISQgSIZ+X37Pw8PznHcPa+/17nfvvdbaO9BDDz300EMPPfTw/yPS1QIcjtWrV/chsc8khdMVTgNOCWeHBnW1XMcTX1cL0BJVNWuqq0921ZmO6hQLpwL+lmnmqzoXi7hdJOJxp8tHwHxVJ7MyMsWKfEXgAmBIi8cKrAVKgFlAb9cvAyamp3/SFbJ2BF02AlZVVqYY/FdoVc11KjKsxZuwEeEVhWUGd8n4rKw6gLKqyAyUkLhuCtCjgGOlrKrqy2rNdYJMUdTxfpVy1D6LmmfDI9Or28yobAdComYYsL7TBO5gOk0Bq9ZtHCpiH0GZIgIIrqisROWJmJrnJo5M33a4/AIbFc5AZWgnidwpdIoCyqpqClD7P0B/FVxRHBRH0QmITnDEPlhWGakDShEpE8ta1+qa3JHpG0XEAqiyBgGUjM6QubPo8Em4vKrmS6r6KuBHmOeI+ZO19mWFJNC3FPlYhPEoX2wj+z6gQpA1QJOi1ynyZm52+lkdLXdnYTq6gv1FhY/jLSXvDWeFLhubOeINFb3FeypZYuXGcFZosBILIDID1dtAnkOIAL2AkxW9StHrAASdVFpa6m+vvn83OnQE6Ny5pvjxx93+P7ldB513Tq+MjIwGAFWV8qqa54EvA++Yhr2njhs3bm/r/Cuqq/slxsjFyMMoIUQUVUF1cjgn47WOlL2z6NARIHPnWpPcz931i7uk9hf3LC8MhRIBREQbHP0WyjpgtJvU58n52rwi+hSftQmI+QlKCGgUtNArWPI7Uu7OpMM/Qc4JA19SVRpeWZxLfX20KBj8dWEgcGpxRsYea7kQ9CNRLsqs2vhnVT0wIsvX11zk4LwDOg34UI2dKphfAShc2pbC/h3p8El4PjjJodA66uszWz3apar/SszKeq/vld+5xJedk2AGDLjXWv2bMfJ/gbPjIi4yjr1qXEZGVFVNeVXNJiBNVGaOz0l/qaPl72g6xRRRPHToEI3FliMyDIgIqHLoclL69cOfNhQnLQ1/ILhf6+sf3fXsMw+8FYlsmgsWoKwy8kPg18Br4ezQ5M6QvyPpNFtQUUpKFsYsBU4U1WdE9Yeu45wuqqcDYYyZgLW928neAHyC6nvSt29x/xtm3+CkpfWWBP+lJ+dPf7qz2tARdKoxbmEgMN6IvAoMROSJvNra74hncENB3rzyypMb165Ni33wwVBVzQRyUA0j0vcwxb6P6gYRWQ9UqOo71u+vmLF583ud0abPS6dbQ4tTU89U1WKgNyJz8mtrf95WupfT0iao6z6lIjkAorpeRXJQ3YHjvG569821e3Z9EejTTlUfAmtFtdLCh47qn6dv3VrbMa06drrEHF0cCMxQkX8AqqrTCurqXm31/DoVuR9IEtX1Cjfurqt7rW8wuF4gQ6ydmrd16ysALwaDAb9qJsaMtDBaVEcBo4GBbVRdB/wLkWVWdfGMaHRtR7f1SHSZP6AoGLwDmAtsjFk7ZubWrfvmB4O9kuFh4HK8T9NDu+HWi6PR/QDFweCdCj8DHsyPRme3Ve7LQ4cOt677Y4Hv6MHOnE+A/q2S16G6QIx5ekVt7bLmib4z6TIFlICvPhh8Cwir6t3Wce53rF0AnAnUK1xdEI3+d8s8hYHAuSKyBFieH42e0fLZghNPTPYnJd0u8B9AAtAELAUmA+/lRaOB4pSUDBWZJMaci+p0YHCLIjai+pAvMfGxqRs3dpq/oUs9YkWBwGmILAd2iUidquYAW63IhTNqa0tbp1+UmpriqtYB7+dHo18Eb/IuDgS+hsh9QCpgEfmbo3pbTPUKEZkDPJofjV7dsiwFKUxNnWBULwEuiecF2A08LvD7vGg00nGt9+hyl2RRMPgq3lvqIfKsqD7j+nzLWq9kSidM8O/Yvr0RaMqLRhNfTksbqdY+jOewR+ANhRvzo9E1AIXB4AaBDIWCgmi0qD0Z5oKZlJp6vlp7g4hM8YpCFSrw+WYVbN684vi3PN7cjir4s1KUmnoBqgvaeqZQDRQa1QWJdXVv7hg1yiR/8kkDYFG9HZE7gESgDpEf5tXWPt28rG0xurYN+uIXh05cubKpPRmKhw4dYq3NFzhLrJ2sImmfCqExRO6v9/nu+crmzTuPZ9uhGyigMBRKlPr6HUBfhWuN6lAVmSgwSWFAi6QfAUV4E7QLOAAi8uR+x5ndunOKA4GnVeQSEflZXm3t3a3rLQoGx6rITFG9ADiZg/tiH9AbQMEVr64PVeRHBbW1jx3H5ne9AgAKg8HnBL4qMCsvGn0EvEm6IRA4U+F8RC4AQi3zKOwzMLs5fUsWDhky1DhOBHD9fv/QKZs2bQcoTE1NF9VvAt9sVd4ehddE9VULJQauQORmRF4Ua+coPITIl+JpX1bVqwvq6qLHo+3dQgFFqak3o3of7Swv4yucpwUKWj2KIfJ3rL0/v67un80/FgaDDwjMFpEnG/bvvyEhKelSRK7EM3sIgKpuNyL/QHVBot+/ZPLmzfVwwGSyBvALnJoXjb4Vn+ivFJEH4qPyI2BWfjT6/Odte3dRwHS83fGr+dHoeS2fvTRkSI5xnAXiGe8agQREngX2ofoNvDkAgSIxZo6JxXbEjKkCElX1GREpAPrFi9uF6vMKT71VV/daW+v+omCwCMhD5In82tpvt3y2cNiwwSYWewSYAajAr1dEoz/9PPuHbqGAl1NSUq0x7wJb86PRQPPvhamp04zqMwoD4hNyk8DI5lVN4eDBg8Tn+77A7Pibqai+i8hQ5aDGvY7In3ervtC8qWuLotTUS1H9H2CXOE523pYth0RqKEhRMDhH4A7ACLywCy47XLmHo1sooGTYsKT6WGw/sC8/Gu0DUBQM3gT8FnAEXnAc56cx160AdmtS0kkFkUhDc/6X0tIGOtYW4oUytuQRMeaBvHffrTiSDAuHDBnqOE55XJFX50ejjx4u/cuBwPlWZB7QF3jVNDVdMH379kPcqkeiwz1in4X497cR6L08GOxVFAw+CPwO7w371Ypo9KtNrvt1QBReau78uWCKUlO/4XPdZbTo/OalKCK5xtrGI9U/HxzjOE/FO3/hkTofYHpd3UuInAvsAM61fn/R/GCw19G2vVsoIM5ugJ0ixcCNwD5EvpwXjf545KhRPvFiQwH+AlAcDH51UjC4FtV5cYvph/HnH6M6E6hENdeFlcWBwBWHqzg5EJiLZwLZ5vf7r/qsAufX1r5tVacJ7ATOTIb/nnuUfdqdFGAARPUs4EO1dlp+be0/APp+8sm1QBAoE9XGomBwmcJzwEigVkVuwXPaoHBrXl3dwiSfLww8CCSryJNFgcDj80eNSmhdaaFnxrgNb29xWfOS9bMyo66u3IU8vBfoK5MCgVuPJn/3mAM8w1wjnjxWRC7Kq61dAN4SNCEpKQKcpKrbReSkeLo6EfmlTUx8hPr6xwQuQ3Xpv+rqzm65KikMBL4mIo/irYSWaFLSRQWRyC6A4kBgnIosA/qoyA8LamvvPZyc80eNSuj/8ccjXMgQkRAQovl/SMOLNIwZY06d/u67Kz9L27uFAhYFgxkubGjxkyKyxMJPjOr5eCuOZvar6r1OLPar6du37y0KBi8C/gY0qjHhgnffXde6/HhHF+NZP/+Z1NAwbX9CwgAR+SfeyHokPxqd1TLP4pSUtJgxo4GxwFiFMQJZtDqv0Ir3gE0q8vyRlNlMt1BAcTB4tXp+gNfwzgNciWe7t4jEUPU+HSLzbSz2oxnbtm0BiC9D3wFOUrijIBq9q706XkpLG+FYuxgYgXfe4ERgDLDEJCZ+x92/f7yInILIycAptO3QUWCzQoURiajqJqO6UR1nU1Mstmnm1q37jrbt3UIBRcHgS8AMFbmqoLb2sX8MHTrcb+0CVMfEk9SjemV+Xd2zLfM1mzCAfyZFo2dNhtjh6ilMTU3H2mUi4sWhiuxS1V3ijYKDiH/uyoG1IrJO4Z2k+vr1k3fs2HNcGh2nyxUQ/8ZvB5Ksz5fiNDWdZeHBA53kWSN9CtWutafP3Lr1A4DC1NTviep/ArtVJFxQW1vTVvkl4KsPBE5WkbMEzkT17Dac/B8BpSpSKqqlxtrSzvIfd/kZMX9S0vVALxF5wzQ13a8i32j5Vhhrv63G3IZIjs+YB4HLilNSclX1twCo3lgQjR7U+YuCwQxXZKoYk1/vumcDyQfKFEFho6ouN8YscVSXTYtG2z4U0gl06Qh4MSWlt8+YTXgrnB0iMgjvO9ss1+/zo9Gb4t/vtUBvY+0Z1pingBECj+VFo1eVDBuW1NDUdJ4aMxNrp8cDwA4Qj6h4RVXfUL9/aXcKWelal2Rq6u2o3k280wXK1Zt8hwMrdvfvf/bFFRWNAEXB4J+Ba4A9eNv/CivykKM6XWEqLcJTVHW7Pxhc3+fyK87xjx67/ORzzzrjkMq7CV2mgOKUlFxrzNsCRsEa1V8CIRW5BNgag1NmRqN1B9IHg5cpeE56x1GshU+DeRUoFZEXreu+lL91a/lb69efkCD+HcCe6qz0gd31aGuXzAFzwajI78Tb/e4DChDJV885vtuqzphZV1cHcV9Ar15fR/XGAwW4rpCQQGLuBNc/IrTUNyTlttN+cOOygyrJyfmwrDJSDWRmra/JAd7ptAYeBV2igFMDgbvU8zBtw++fbJqaLlO4FWhUka/NiEbLX05Lm2CtvQZvh9vXs65hncFDPu575be/kHTaGZskue9QvCjqN8ryI8Wi+uC47NAiEWkOdywTyHQdDdNNFdAVoYkXqurfAVdhiqhegMjNQJMj8i3X2sGIfB9Ij2exwOuq+l/+xMQFgwoX/U3hPKyZ5vrdjcZlliDX8qn/uBrkDwlu/aONTuKPgdsQmRvOSr+zs9v6WehUBRSmpITFmNeBZKN6s4rkKMwSaBKf700bi52CN8GC3x+lqekRfL4n8jdv3txcRlllJAKkqzXDckeO2AJQtmnTABrcWcANeDYZgJ0irFAlD+GJcFboIO9Wd6HTFBBfSi4DBluYJ6onishUICbgaFwWJ5C6Lfm7Vw1JOP2MOyeMyZnbsozS0q29nb77dgP147PSk5uPsDZTUlLiGzgkeJEi/0E8VijOlnB26KClaXehUxSwKDU1Jab6mkCGwHI1ZgTWHggLFJFY4pSpvj4F57+WMHbcHFV9E9js7tmZOXHixAPxPKsqayYK+jZIeTg7PdxefZWVlcn71fc8whQAVPaGc9IPF+LeZXT4JBwPJywRyBDV7SoyCWubz3ftRfX+L/x13kjf4CEXgSwYn5W+tLwqskKVU319BnyHuAMGQFRHe+4urWqvvrLK6gv3Iw8hBMWLMU1CtFsuQaGDHTILhw0b7KouBjKBmHr2HQdVF3jU+nyh/itW3OMbPGQqgOvYFwFc5U4AFeauqq7+9H4g0VMAUN5uXVd5VVWgbH3keZAX8IxrrwtmPJ6Brm/LA4DdiQ5TwMJhwwY7sVgJntdKiY82gSKjOjw/Gr16xubN7yXta7gQSAaWT8zIqAGYkB0qRpgHDBFXnvi080z8u67Lm+spLS31l1XWzFZ11iF8BdiJ6KzxWemTx2WPqALdBZh169a1d5CjS+kQBRQGAkGBMoVsAETEP3wE/X8y5+68aLSgpaVRlJsABP1jyzLU6GzgfSC/vDJyR2VlZTLoGKAh2ccqgPL1Nec7fQesBX0A6AfyXJPr5ISzMh5p3guAtwO2tle3VMBxnwMW5eRk2IaGNdrYmASQMG5cfb/v3ej4QiGf8fFQy7SrN2yYZC2nATv6OBxk68/NyNhRXlXzVVV9BZE76kkIgXWAf+2Pmcyyqur7VHUqgKCVaswt4cz0he3J1ZDQ1C3ngeM6AhZfcsmpiqzVxsYk39Bh9L99zosn3HffFF8o5EdYNy4Uer9lemvNzwBE9dHmawxaMj4rfSlGvgo0KPby+M8ZrmgZKlOB9xW5/uNt0TGH63yAmDFHDE/pCo6bAl677vs3ue+8s8xJSUkc+PN7Pjrxkccnn37dtReI+j3Xnj3I58vKddWn4sV67ooZe1975YYz0xeqNl3Op8a0QQIuIr/sRSyUm53+x8mTJx/OE5YEYJOS2g1P70qOyyeo5Oqr721at/bm/jf9QHqdedYSx/VdPiZnxHYANepDAUN9c3rvxHvkdwACv5mYlfVBW+WurIiEjOFHCFfiXU2geMFZCajOrFfflrJNm54JDx/eZtx+/FaVZMCeFgweMsK6A59bAUvv/sU9pm/yDwb84IeCY/64ISt0Y0vTr1F2WUBb3Ae0urJmFiKnANukYe/9rcssq4ycAdyE5+89cCeEwF+tUCjeMnW0Cn+SBveBsqrqN7GUiMgKx0dkdHp6VETUP2DAQBsDhB2td83dhc+1Ni6rinyZmPs3HMcIzBmfHTrkzO/qSOQkG+M9YJe7Z+cg07//AHGpBDkB4ZpwVuhhgOW1tb167228VFVvQGje5e5D+CvKN4B+iMwIZ6UXlpSU+PoPTrtQRL8LTKeFkuLsBz7G2wOkqRLJzQl1y5u2jlkBq9dV51pj3gDto/Cz3OzQIadQmimrjKwDckQ1zwoXC/JdhTfDWemT12zYdLqqfkvRr/NpGPm7wB8S3MRHGqVpAsYuAna4e3YGWpomACoqak9ocOrPFTXnIDoaGIUXcnIAVa3MzcnIOda2diTH9AlaXlvby+5tmA/aB+Xh3Jz2Ox9ARB9Wld+KkftFyQaaRKSmvKomAhwwkim8CfrgJ9uiLzRPrGWVkesBBOa17nyAUaNSP8ILU3xudWXlcIv/LtDLAONtwqSfcaTbXu50TArota9xDp69/p2+vhaeqnYw1rziisas0vwW+lH1zMNCBco8x9h5YzMzN7bMtzYSSY3FOB9Q19g/tVd+aVXViUbNLYrMBk0C9in6e5ABAtdal0Oi5boLR62AVdXVg3D1/wBqlW+3uIbMrKmpORFrh1vrhERtphUTFnSSi57UsgxF3xcxjzqWeWOz09u9LqApxjXiyVgyITPzkLtCV69e3UcT+96gqj8F+ilYgadi1nfrxJHDtq2qjLwBgJH/dxRgLFcoJIA2GZHFZZWRfUD/8qqauLnXAIqKIPEwfbzw7QHq2f59gumjaleMzclot/MrKir6NsK1eKU90PKZ5xfYf41FfwrqGeuUhWL11vGjMiqgealbMx7A3yjd0h0Jx6AAteZCRAHx48VPNsdQNiJ8LEpU0SpFKg1a5SK7jBc8iyiz1DBBVG8Q5O9llZHf7kx05kwePry+dT0NvqSbRXWQwtpwVuhF8Oz89fivV/bdDDSPquUG5ozLCR104ceq6uosg0kGNo4ZM+KoQs47k6NWgIhmKhCzjEmM+eu0d5OfvXv3tnXrYWlV1YmOOm8DvVGeDOeE/ktVnyivrNmC8HPglgEN7gVlVZFbw1mhF5rzraquHiRu/GpL4Z61a98dUFZVc9N+tTeBnhBPtlSN3Jmbmf5Km3Ja5xxQUJYebRs7k2OZhAcA9NaGzaPGhtoNVC0pKfH51HlaYRhK2f6+id69n56V8t6yDRtewZqngNEofy+rjCzFmrvCI0csFpefAsko6wQmuAlNf0FJ9g4fyRtG9M5x2Qe/8YeiZwMILDt8uq7lqG1BKkQBYk6vwOHSDRgS/I3CecCH4Fx0emrqQacIw5mZ5e6enbmI3gB8AHwJYxetqoysVOT7AOKZs2/BMye8JnBuOCf97CN1fmlpqV/w3JGKs+ho29iZHL0xTqUcwKqd2V6Ssqrq6/Ec440GLg7nDN/cVrqJEyc2hbMy/tDgaDoidwK7BXIlfgjCGlGQRT6/nBzODk0enx0q+Swi+vr0Pxf4AkJFe3V3F45aAUbtkwAIs0tralpfgMSqqkg+Kr8DFOWaw72tqmpWbaiZkuTKQ+iBN/3A2klUHdBpsSYtKl8fmVdeWfPdlRWR0JHci1a42KuAw5qouwNHbYqIXztcApyNMG98Zvo3mw1d5VUbT1G1S/Au3mjTPFFdXZ2428q5KBcauFCbL00SLJ7SHJAfiGsX48glCt/g0CsudymsNkK5VV1tlFosdTGf3c7u3Z84ffu/B3KCozJ2bE77+4zuwDHZgkqrq9MdV1YAJwr8aUNW+g2Z6yLZ6sjrwBcUfSw3O+Mq8N7y1ZHIOHXNWaDn4M0LyS2Kq0J1HiKXAlkor4zPTp/2qUsRVm7YkCOumSLCFNAvgZxAO6iqiogAb4ezQ6ccS/s6k2M3xm3YMMlaswjop8ibBjIUHQzsQngISEEZBTIStJU/VspBF4qYf4zPGvFWeWXkjwrXAe+LuLnNf7ak3borK4dbnImKZAtMA77UOo0i1+dmp/+xjezdis9lji6vqB6ljnkRdPgRktaA/FNUlzp+CseEQgec8qsqa74n6H8CVlTzx+dkHHHVsmbNloGxxKaZYrkC4bzmdiisFNVcROpJdFLac9R0Jz53rMyaNVsGakLsLxb9WvynHSKyRNFXRYmIj4rWvuBmyiqrvw7yNGBEuXF8TuihttLBAWVPETQvvrxtPi66H+EFVfmtoN8EZoP8NZydftjT8d2F4xastLIykmfgN3h3dgJUq8hj1nWemDhy2CG3jpSt2zgVY1/Eu27mF+Hs0O3Nz0pKSnz9hgwdKbgni8pZCFM5+M9bWeANQZ6qd+xzp2Zk7IoH6G4Bkh2Vcd198m3muEaLzVd1QhtqLke5RbwzuOB5pRaKypOxBJZMTE//pLwq8hVV5gGJIM+BPoAwUpTRCrl4/1rdI60fKbJYlOIm6xSfMmr4Qee8yqpq7kH1Jyh/D+eELjqe7epIOiRcT1VldWVkKsI1iszEu8cTIIayWYQReuQ9yDaQZcAyhGXVmSNWtXfMqHTd5iGOiUWAXsbqxHEjM1Ydx+Z0KB0SnBtfQi4CFnnOEt/XgAKBcxENaYu0KuKK1Q9EZANqS43xL45p/erc7Oytn7U+x8TuwhsxL/w7dT508gGNkk2bkgbWN30LMV8GchTa+ptgTXjXAdSKEhVhiwq1IHXWtR+J4+z3SWy3GrNnv2p9QoxRIrJUoNEYO6q1V62706URw2WbNg0wDW6uq4RFNIxKGCGLQ6McjojA3eOzQz/rADE7lG4Xsl2yaVNSv6am4SbmC4rRoAppoqQqmiLepRx+vGNMvfCi3vohVO5McCa25djpoYceeuihhx566KGHHnrooYceuhP/C21ggfJ5r6dJAAAAAElFTkSuQmCC;" vertex="1" parent="2iNg4MN7d1wqHR_g2wRO-5">
          <mxGeometry width="82.56054756054756" height="82.56054756054756" as="geometry" />
        </mxCell>
        <mxCell id="2iNg4MN7d1wqHR_g2wRO-8" value="&lt;font style=&quot;font-size: 19px&quot;&gt;sql server&lt;/font&gt;" style="text;html=1;strokeColor=none;fillColor=none;align=center;verticalAlign=middle;whiteSpace=wrap;rounded=0;" vertex="1" parent="2iNg4MN7d1wqHR_g2wRO-5">
          <mxGeometry x="0.4264654264654426" y="105.11132391668663" width="63.18006318006317" height="35.9109408666507" as="geometry" />
        </mxCell>
        <mxCell id="2iNg4MN7d1wqHR_g2wRO-27" value="&lt;font style=&quot;font-size: 19px&quot;&gt;&lt;b&gt;备库&lt;/b&gt;&lt;/font&gt;" style="text;html=1;strokeColor=none;fillColor=none;align=center;verticalAlign=middle;whiteSpace=wrap;rounded=0;" vertex="1" parent="2iNg4MN7d1wqHR_g2wRO-5">
          <mxGeometry x="111" y="141" width="40" height="20" as="geometry" />
        </mxCell>
        <mxCell id="2iNg4MN7d1wqHR_g2wRO-19" value="&lt;font color=&quot;#ffffff&quot; size=&quot;1&quot;&gt;&lt;b style=&quot;font-size: 20px&quot;&gt;OGG for sql server&lt;/b&gt;&lt;/font&gt;" style="rounded=0;whiteSpace=wrap;html=1;strokeColor=#000000;strokeWidth=0;fillColor=#FF0000;" vertex="1" parent="1">
          <mxGeometry x="990" y="224.48" width="150" height="43" as="geometry" />
        </mxCell>
        <mxCell id="2iNg4MN7d1wqHR_g2wRO-23" style="edgeStyle=none;rounded=0;orthogonalLoop=1;jettySize=auto;html=1;exitX=1;exitY=0.5;exitDx=0;exitDy=0;entryX=0;entryY=0.5;entryDx=0;entryDy=0;" edge="1" parent="1" source="2iNg4MN7d1wqHR_g2wRO-6" target="2iNg4MN7d1wqHR_g2wRO-19">
          <mxGeometry x="580" y="110" as="geometry" />
        </mxCell>
        <mxCell id="2iNg4MN7d1wqHR_g2wRO-15" value="" style="rounded=0;whiteSpace=wrap;html=1;dashed=1;strokeWidth=2;" vertex="1" parent="1">
          <mxGeometry x="20" y="110" width="490" height="260" as="geometry" />
        </mxCell>
        <mxCell id="2iNg4MN7d1wqHR_g2wRO-11" style="edgeStyle=none;rounded=0;orthogonalLoop=1;jettySize=auto;html=1;exitX=0.5;exitY=1;exitDx=0;exitDy=0;entryX=0.5;entryY=0;entryDx=0;entryDy=0;" edge="1" parent="1" source="mtnY_jctjg4N5cMxts-R-3" target="mtnY_jctjg4N5cMxts-R-4">
          <mxGeometry relative="1" as="geometry" />
        </mxCell>
        <mxCell id="mtnY_jctjg4N5cMxts-R-3" value="&lt;font style=&quot;font-size: 19px&quot;&gt;&lt;b&gt;发布器&lt;/b&gt;&lt;/font&gt;" style="rounded=0;whiteSpace=wrap;html=1;" parent="1" vertex="1">
          <mxGeometry x="370" y="170" width="120" height="30" as="geometry" />
        </mxCell>
        <mxCell id="2iNg4MN7d1wqHR_g2wRO-21" style="edgeStyle=none;rounded=0;orthogonalLoop=1;jettySize=auto;html=1;exitX=1;exitY=0.5;exitDx=0;exitDy=0;entryX=0;entryY=0.5;entryDx=0;entryDy=0;" edge="1" parent="1" source="mtnY_jctjg4N5cMxts-R-4" target="mtnY_jctjg4N5cMxts-R-5">
          <mxGeometry relative="1" as="geometry" />
        </mxCell>
        <mxCell id="mtnY_jctjg4N5cMxts-R-4" value="&lt;font style=&quot;font-size: 18px&quot;&gt;&lt;b&gt;分发器&lt;/b&gt;&lt;/font&gt;" style="rounded=0;whiteSpace=wrap;html=1;" parent="1" vertex="1">
          <mxGeometry x="370" y="250" width="120" height="30" as="geometry" />
        </mxCell>
        <mxCell id="2iNg4MN7d1wqHR_g2wRO-13" style="edgeStyle=none;rounded=0;orthogonalLoop=1;jettySize=auto;html=1;exitX=1;exitY=0.5;exitDx=0;exitDy=0;" edge="1" parent="1" source="mtnY_jctjg4N5cMxts-R-5">
          <mxGeometry relative="1" as="geometry">
            <mxPoint x="720" y="265" as="targetPoint" />
          </mxGeometry>
        </mxCell>
        <mxCell id="2iNg4MN7d1wqHR_g2wRO-10" style="edgeStyle=none;rounded=0;orthogonalLoop=1;jettySize=auto;html=1;exitX=0;exitY=0;exitDx=60;exitDy=50;exitPerimeter=0;entryX=0;entryY=0.5;entryDx=0;entryDy=0;" edge="1" parent="1" source="mtnY_jctjg4N5cMxts-R-6" target="mtnY_jctjg4N5cMxts-R-3">
          <mxGeometry relative="1" as="geometry" />
        </mxCell>
        <mxCell id="mtnY_jctjg4N5cMxts-R-6" value="&lt;font style=&quot;font-size: 19px&quot;&gt;&lt;b&gt;log&lt;/b&gt;&lt;/font&gt;" style="shape=note;whiteSpace=wrap;html=1;backgroundOutline=1;darkOpacity=0.05;size=18;" parent="1" vertex="1">
          <mxGeometry x="240" y="130" width="60" height="70" as="geometry" />
        </mxCell>
        <mxCell id="2iNg4MN7d1wqHR_g2wRO-4" value="" style="group" vertex="1" connectable="0" parent="1">
          <mxGeometry x="27.72999999999999" y="180" width="182.27" height="143.54" as="geometry" />
        </mxCell>
        <mxCell id="2iNg4MN7d1wqHR_g2wRO-1" value="" style="shape=image;imageAspect=0;aspect=fixed;verticalLabelPosition=bottom;verticalAlign=top;image=data:image/png,iVBORw0KGgoAAAANSUhEUgAAADAAAABBCAYAAACXfCfjAAAJMUlEQVRoge2a12tUQRTGTzZr77333jAW7NgiKrELgj4Y9EURxQ5R/APE8qDig6KI4pOKYkNFRVTs2HvvLcbea8b5HZjlZrMpa7LuFfxgcje7e2dPmXvOd85MgrGQfxjBgk6A/l+/fpVv377Jjx8/5NevXzoyMzP180AgIMFgUBITE/VarFgxKVGiRIEFd8i3Ai9fvpTHjx9LRkaGPHnyRB4+fKjvvX37VsfHjx/l8+fPqsT379/l58+fqlyRIkWkaNGiOhC+XLlyUrZsWalQoYJUrVpVatSoIbVr19ZrnTp19P1okJDTEkKYGzduyKlTp+TSpUty+fJluX//vgoIsCxClSlTRipWrKijdOnSUrx4cbU0gickJKgyeMd56MWLF6o4CuM5fh6PcV+TJk2kYcOG0qZNG+nWrZu0atVK349KAYTev3+/7Nq1S4Vn8vLly+vETZs21Wv9+vWlefPmUqVKlZB1ERjBUSwc/ARLioEiKMW8ePLOnTty69YtvWKgBw8eyKtXr3SeLl26yKBBg6RXr17SokWL3BXAMuvWrZM1a9bI06dPQ1Zo37693ozQuD+WePfunf729evX5cSJE3L48GG5cuWKLq3x48fL6NGjdbmFW8fcvn3bpKSkmFKlSplhw4aZ7du3G6uQiTeQwa4EM3LkSGO9a5KTk83Vq1ezfIe1aMaOHWvsMjHLli0z1sVxEjdn2CVnlixZYuwKMKmpqebDhw+hz+TcuXOmZs2aZtKkSXEUMX+YMWOGscvJ2KASei9ANOCh4oF6/fp1TNd4QWCtrs8HQYAQ7RDgaSeC2HUvEydOlNOnT4dCpR+AcZEJ2TZs2KAJ0RvpgtYL+gbR5uzZszJkyBAZPHiwDB06VDp27KgJJh54/vy5XLhwQbZu3So7duzQfICMhFjjifyqAC4ZMWKEDB8+XJYvXy47d+6U9evXa6zv27evtGvXTsNqtWrVpGTJkkoFiP2FAbxN0mQQykmaZ86ckaNHj2o4JVEOHDhQpk6dqvnJBpoQTVEFvJO1bt1aVqxYwYMtBw8elCNHjsjmzZtVGbIqiatRo0ZSq1YtqVevnv7vsjA5AuUc72Fwj+NGLiO/efNGqQfZGCuzrkleJDGeQb6HgTAacb9nz55qeVbJvn37shkgpIDXLdzMmDBhgqSnp4vNE2Ljr2ZpMubevXtD2dKRNCc483DFQyiAd7Ey7zMc4XPPWeXKlaVu3boqKJneDbyN9b0wEVhPrmTOJjalDoz+/fvrBFjv/fv3ymWwIASP/1kCX7580cFnnz59UgXckmMurgy8hRerV6+uxA5BoSuRaEheiIpOIxBs0TFGyFa8Eb3KPsN/BWIBwiTPUH7gOwWIetOmTdO8RLTLCwWuiQsbsAGSKSDEkkgJ0Tkh5AEijB9ADujdu7eGWYTPK7QG/SK4A5ke0sZSgsp4FSBBhkMV4KE5efKkZtdKlSr9TXkjgm4FwwvKTWp0MrjX6KoemkHgpkyZogTKb4DCQObwDMhGp1GAlsaxY8e0CwCJ6tevn7Rs2VI5yd8GMkHyrl27JgcOHJBNmzYpEaS5AGXJRqdZQgg9YMAAZaNr166VlStXKjvt2rWrJCUl6dqEdMFAC/u5gdzBUmGlN2/eVDaMMelFYVyMSUHDMkeuLHTaPQN0zbp3767j/PnzWqERh1EGggbp4vmw9bN6i4FS8CKKDe53fSHHTB2dhpHyG6xf5qKhBZ2GQtMTunfvnjx79ky7fpBFCCBzp6WlSXJysnTo0EHnQ7FwRhoKsF6tsDhj1qxZWmDgStYh1oF98hpBcCcCOkaJIq5jhxJeOs0VwbE09/I534OlYgTCZp8+fTTyUDzhfRTxwitjNgUigcnpjjEA65AUD40mYjGIDtBnR6NRiu9wxWoohXKuqYtQ/I83UZwlSdnKZ3m1ESMhqkyMEAwqsNzgiheAF2KZa2JCJWIttBeBSGXavwTfsVHgHvj8wHcKEBjmzZsnY8aM0TZKXvAdnaYLt3DhQn1N8U9ojUTiHHxHp+k3sS9Bx8L1g3ID2cZejG8UIJGx0UKmpuvhlStSYRMMBBJtNs3UPiTJqDB3EP8UjRs31uEFDzWsgM6d1ysBMZm6xrZs2SKzZ89WmuA3wJegNXgmPMcoG6W9DtPcuHGjPvmjRo3SgTvJvPEAFoeDbdu2TesAyB58CetnodP8gZCNGzdOmSgF9apVq5S2du7cWXr06KE8nFqVKonIkFuR/Scg7tOeREgII33Y48ePa5ca0OZftGiRsuTVq1dHrgdY+7SxUYKbDx06pLuEixcvVoEdY2S3kl1DCBhEDEIGN4KcOTrt3YRgbrdz7wift0P96NEjZbhcqQcgh8hEPzY1NVXpNFGJPWiU8/KskAecFwBMkUYugx+hG40lqEfv3r2rV9wKRYYOO/rMUnO1gKPKwO3aowCvuc91qHmf7+JZKj+Mh7BYHCOF1+dORi9yXQt0jCkmGLTasaDr6bMZwSBzOvrsNiv4n9fOswxHp6HM0HSEQ3C8iGcplGJOpxGgQYMGOvKC25kv7OclHDGbneX0J/3+qH8n5r8QY/hWAR74/MB3ChBGFyxYoEGDncq84Ds6zSmVOXPm6Gu80KlTJ2UKOcF3dJpwCoUh1IY3dyPJGHSZzS8K0BMiUZJrXEPLIZwHgSAJhV4NXS/6PvEib164veJwcPgJSpFl/5izONOnT9cDRTNnzjTp6emxPjUTNSzJM2lpacZmajN37lw9P+SgJ7YyMjLM5MmTjdXOJCUlmfnz5xtb4BibSeMmtOVJKoNloSqTtbrKaJdWlu+FzszBv3fv3i1Lly7VfSoYJscNoNNccWm282qFDNed5vcJoVSJEEoiEd3plJSUbP3SbKcWOVhET37Pnj162IOHiXAGvaVjTNENU4QPQcaYkHXpCJs7O+HOTbjDHjBPBvND+KDV8H/mp0vNOVQqL14zF9EI49GVoL2e04HDHM+N8jZtbyxCmXnx4kXdveFEiaPEeA1BqQkY/DAx2w3InBMcIzC4H+H5zH0PxQkmzZo1k7Zt22r4pH2fH9KYowLhQGCsRzHCBhzWoyChkoJWO8FQyhUvTO3dO8BTbJ3iOSIJVJrXtFAomDBCbkmrQAr4Fb7jQtHivwLxxm/3vZtTx1Th/wAAAABJRU5ErkJggg==;" vertex="1" parent="2iNg4MN7d1wqHR_g2wRO-4">
          <mxGeometry x="83.60172779922782" y="4.883471596409133e-14" width="98.66827220077221" height="133.61561776061777" as="geometry" />
        </mxCell>
        <mxCell id="2iNg4MN7d1wqHR_g2wRO-2" value="" style="shape=image;imageAspect=0;aspect=fixed;verticalLabelPosition=bottom;verticalAlign=top;image=data:image/png,iVBORw0KGgoAAAANSUhEUgAAAGAAAABgCAYAAADimHc4AAAABmJLR0QA/wD/AP+gvaeTAAAbLUlEQVR4nO2deXiV1bXwf2u/5yRhCIMVCzknYcjJxHwCikMdUIYkiLa21arVDopaq3LrZ2tbpaK29mur1Vp7OzhdtfeiaK1USSKIcQBKNZAABhJywmBOQMQBGTOcd6/7x3uCISQgSIZ+X37Pw8PznHcPa+/17nfvvdbaO9BDDz300EMPPfTw/yPS1QIcjtWrV/chsc8khdMVTgNOCWeHBnW1XMcTX1cL0BJVNWuqq0921ZmO6hQLpwL+lmnmqzoXi7hdJOJxp8tHwHxVJ7MyMsWKfEXgAmBIi8cKrAVKgFlAb9cvAyamp3/SFbJ2BF02AlZVVqYY/FdoVc11KjKsxZuwEeEVhWUGd8n4rKw6gLKqyAyUkLhuCtCjgGOlrKrqy2rNdYJMUdTxfpVy1D6LmmfDI9Or28yobAdComYYsL7TBO5gOk0Bq9ZtHCpiH0GZIgIIrqisROWJmJrnJo5M33a4/AIbFc5AZWgnidwpdIoCyqpqClD7P0B/FVxRHBRH0QmITnDEPlhWGakDShEpE8ta1+qa3JHpG0XEAqiyBgGUjM6QubPo8Em4vKrmS6r6KuBHmOeI+ZO19mWFJNC3FPlYhPEoX2wj+z6gQpA1QJOi1ynyZm52+lkdLXdnYTq6gv1FhY/jLSXvDWeFLhubOeINFb3FeypZYuXGcFZosBILIDID1dtAnkOIAL2AkxW9StHrAASdVFpa6m+vvn83OnQE6Ny5pvjxx93+P7ldB513Tq+MjIwGAFWV8qqa54EvA++Yhr2njhs3bm/r/Cuqq/slxsjFyMMoIUQUVUF1cjgn47WOlL2z6NARIHPnWpPcz931i7uk9hf3LC8MhRIBREQbHP0WyjpgtJvU58n52rwi+hSftQmI+QlKCGgUtNArWPI7Uu7OpMM/Qc4JA19SVRpeWZxLfX20KBj8dWEgcGpxRsYea7kQ9CNRLsqs2vhnVT0wIsvX11zk4LwDOg34UI2dKphfAShc2pbC/h3p8El4PjjJodA66uszWz3apar/SszKeq/vld+5xJedk2AGDLjXWv2bMfJ/gbPjIi4yjr1qXEZGVFVNeVXNJiBNVGaOz0l/qaPl72g6xRRRPHToEI3FliMyDIgIqHLoclL69cOfNhQnLQ1/ILhf6+sf3fXsMw+8FYlsmgsWoKwy8kPg18Br4ezQ5M6QvyPpNFtQUUpKFsYsBU4U1WdE9Yeu45wuqqcDYYyZgLW928neAHyC6nvSt29x/xtm3+CkpfWWBP+lJ+dPf7qz2tARdKoxbmEgMN6IvAoMROSJvNra74hncENB3rzyypMb165Ni33wwVBVzQRyUA0j0vcwxb6P6gYRWQ9UqOo71u+vmLF583ud0abPS6dbQ4tTU89U1WKgNyJz8mtrf95WupfT0iao6z6lIjkAorpeRXJQ3YHjvG569821e3Z9EejTTlUfAmtFtdLCh47qn6dv3VrbMa06drrEHF0cCMxQkX8AqqrTCurqXm31/DoVuR9IEtX1Cjfurqt7rW8wuF4gQ6ydmrd16ysALwaDAb9qJsaMtDBaVEcBo4GBbVRdB/wLkWVWdfGMaHRtR7f1SHSZP6AoGLwDmAtsjFk7ZubWrfvmB4O9kuFh4HK8T9NDu+HWi6PR/QDFweCdCj8DHsyPRme3Ve7LQ4cOt677Y4Hv6MHOnE+A/q2S16G6QIx5ekVt7bLmib4z6TIFlICvPhh8Cwir6t3Wce53rF0AnAnUK1xdEI3+d8s8hYHAuSKyBFieH42e0fLZghNPTPYnJd0u8B9AAtAELAUmA+/lRaOB4pSUDBWZJMaci+p0YHCLIjai+pAvMfGxqRs3dpq/oUs9YkWBwGmILAd2iUidquYAW63IhTNqa0tbp1+UmpriqtYB7+dHo18Eb/IuDgS+hsh9QCpgEfmbo3pbTPUKEZkDPJofjV7dsiwFKUxNnWBULwEuiecF2A08LvD7vGg00nGt9+hyl2RRMPgq3lvqIfKsqD7j+nzLWq9kSidM8O/Yvr0RaMqLRhNfTksbqdY+jOewR+ANhRvzo9E1AIXB4AaBDIWCgmi0qD0Z5oKZlJp6vlp7g4hM8YpCFSrw+WYVbN684vi3PN7cjir4s1KUmnoBqgvaeqZQDRQa1QWJdXVv7hg1yiR/8kkDYFG9HZE7gESgDpEf5tXWPt28rG0xurYN+uIXh05cubKpPRmKhw4dYq3NFzhLrJ2sImmfCqExRO6v9/nu+crmzTuPZ9uhGyigMBRKlPr6HUBfhWuN6lAVmSgwSWFAi6QfAUV4E7QLOAAi8uR+x5ndunOKA4GnVeQSEflZXm3t3a3rLQoGx6rITFG9ADiZg/tiH9AbQMEVr64PVeRHBbW1jx3H5ne9AgAKg8HnBL4qMCsvGn0EvEm6IRA4U+F8RC4AQi3zKOwzMLs5fUsWDhky1DhOBHD9fv/QKZs2bQcoTE1NF9VvAt9sVd4ehddE9VULJQauQORmRF4Ua+coPITIl+JpX1bVqwvq6qLHo+3dQgFFqak3o3of7Swv4yucpwUKWj2KIfJ3rL0/v67un80/FgaDDwjMFpEnG/bvvyEhKelSRK7EM3sIgKpuNyL/QHVBot+/ZPLmzfVwwGSyBvALnJoXjb4Vn+ivFJEH4qPyI2BWfjT6/Odte3dRwHS83fGr+dHoeS2fvTRkSI5xnAXiGe8agQREngX2ofoNvDkAgSIxZo6JxXbEjKkCElX1GREpAPrFi9uF6vMKT71VV/daW+v+omCwCMhD5In82tpvt3y2cNiwwSYWewSYAajAr1dEoz/9PPuHbqGAl1NSUq0x7wJb86PRQPPvhamp04zqMwoD4hNyk8DI5lVN4eDBg8Tn+77A7Pibqai+i8hQ5aDGvY7In3ervtC8qWuLotTUS1H9H2CXOE523pYth0RqKEhRMDhH4A7ACLywCy47XLmHo1sooGTYsKT6WGw/sC8/Gu0DUBQM3gT8FnAEXnAc56cx160AdmtS0kkFkUhDc/6X0tIGOtYW4oUytuQRMeaBvHffrTiSDAuHDBnqOE55XJFX50ejjx4u/cuBwPlWZB7QF3jVNDVdMH379kPcqkeiwz1in4X497cR6L08GOxVFAw+CPwO7w371Ypo9KtNrvt1QBReau78uWCKUlO/4XPdZbTo/OalKCK5xtrGI9U/HxzjOE/FO3/hkTofYHpd3UuInAvsAM61fn/R/GCw19G2vVsoIM5ugJ0ixcCNwD5EvpwXjf545KhRPvFiQwH+AlAcDH51UjC4FtV5cYvph/HnH6M6E6hENdeFlcWBwBWHqzg5EJiLZwLZ5vf7r/qsAufX1r5tVacJ7ATOTIb/nnuUfdqdFGAARPUs4EO1dlp+be0/APp+8sm1QBAoE9XGomBwmcJzwEigVkVuwXPaoHBrXl3dwiSfLww8CCSryJNFgcDj80eNSmhdaaFnxrgNb29xWfOS9bMyo66u3IU8vBfoK5MCgVuPJn/3mAM8w1wjnjxWRC7Kq61dAN4SNCEpKQKcpKrbReSkeLo6EfmlTUx8hPr6xwQuQ3Xpv+rqzm65KikMBL4mIo/irYSWaFLSRQWRyC6A4kBgnIosA/qoyA8LamvvPZyc80eNSuj/8ccjXMgQkRAQovl/SMOLNIwZY06d/u67Kz9L27uFAhYFgxkubGjxkyKyxMJPjOr5eCuOZvar6r1OLPar6du37y0KBi8C/gY0qjHhgnffXde6/HhHF+NZP/+Z1NAwbX9CwgAR+SfeyHokPxqd1TLP4pSUtJgxo4GxwFiFMQJZtDqv0Ir3gE0q8vyRlNlMt1BAcTB4tXp+gNfwzgNciWe7t4jEUPU+HSLzbSz2oxnbtm0BiC9D3wFOUrijIBq9q706XkpLG+FYuxgYgXfe4ERgDLDEJCZ+x92/f7yInILIycAptO3QUWCzQoURiajqJqO6UR1nU1Mstmnm1q37jrbt3UIBRcHgS8AMFbmqoLb2sX8MHTrcb+0CVMfEk9SjemV+Xd2zLfM1mzCAfyZFo2dNhtjh6ilMTU3H2mUi4sWhiuxS1V3ijYKDiH/uyoG1IrJO4Z2k+vr1k3fs2HNcGh2nyxUQ/8ZvB5Ksz5fiNDWdZeHBA53kWSN9CtWutafP3Lr1A4DC1NTviep/ArtVJFxQW1vTVvkl4KsPBE5WkbMEzkT17Dac/B8BpSpSKqqlxtrSzvIfd/kZMX9S0vVALxF5wzQ13a8i32j5Vhhrv63G3IZIjs+YB4HLilNSclX1twCo3lgQjR7U+YuCwQxXZKoYk1/vumcDyQfKFEFho6ouN8YscVSXTYtG2z4U0gl06Qh4MSWlt8+YTXgrnB0iMgjvO9ss1+/zo9Gb4t/vtUBvY+0Z1pingBECj+VFo1eVDBuW1NDUdJ4aMxNrp8cDwA4Qj6h4RVXfUL9/aXcKWelal2Rq6u2o3k280wXK1Zt8hwMrdvfvf/bFFRWNAEXB4J+Ba4A9eNv/CivykKM6XWEqLcJTVHW7Pxhc3+fyK87xjx67/ORzzzrjkMq7CV2mgOKUlFxrzNsCRsEa1V8CIRW5BNgag1NmRqN1B9IHg5cpeE56x1GshU+DeRUoFZEXreu+lL91a/lb69efkCD+HcCe6qz0gd31aGuXzAFzwajI78Tb/e4DChDJV885vtuqzphZV1cHcV9Ar15fR/XGAwW4rpCQQGLuBNc/IrTUNyTlttN+cOOygyrJyfmwrDJSDWRmra/JAd7ptAYeBV2igFMDgbvU8zBtw++fbJqaLlO4FWhUka/NiEbLX05Lm2CtvQZvh9vXs65hncFDPu575be/kHTaGZskue9QvCjqN8ryI8Wi+uC47NAiEWkOdywTyHQdDdNNFdAVoYkXqurfAVdhiqhegMjNQJMj8i3X2sGIfB9Ij2exwOuq+l/+xMQFgwoX/U3hPKyZ5vrdjcZlliDX8qn/uBrkDwlu/aONTuKPgdsQmRvOSr+zs9v6WehUBRSmpITFmNeBZKN6s4rkKMwSaBKf700bi52CN8GC3x+lqekRfL4n8jdv3txcRlllJAKkqzXDckeO2AJQtmnTABrcWcANeDYZgJ0irFAlD+GJcFboIO9Wd6HTFBBfSi4DBluYJ6onishUICbgaFwWJ5C6Lfm7Vw1JOP2MOyeMyZnbsozS0q29nb77dgP147PSk5uPsDZTUlLiGzgkeJEi/0E8VijOlnB26KClaXehUxSwKDU1Jab6mkCGwHI1ZgTWHggLFJFY4pSpvj4F57+WMHbcHFV9E9js7tmZOXHixAPxPKsqayYK+jZIeTg7PdxefZWVlcn71fc8whQAVPaGc9IPF+LeZXT4JBwPJywRyBDV7SoyCWubz3ftRfX+L/x13kjf4CEXgSwYn5W+tLwqskKVU319BnyHuAMGQFRHe+4urWqvvrLK6gv3Iw8hBMWLMU1CtFsuQaGDHTILhw0b7KouBjKBmHr2HQdVF3jU+nyh/itW3OMbPGQqgOvYFwFc5U4AFeauqq7+9H4g0VMAUN5uXVd5VVWgbH3keZAX8IxrrwtmPJ6Brm/LA4DdiQ5TwMJhwwY7sVgJntdKiY82gSKjOjw/Gr16xubN7yXta7gQSAaWT8zIqAGYkB0qRpgHDBFXnvi080z8u67Lm+spLS31l1XWzFZ11iF8BdiJ6KzxWemTx2WPqALdBZh169a1d5CjS+kQBRQGAkGBMoVsAETEP3wE/X8y5+68aLSgpaVRlJsABP1jyzLU6GzgfSC/vDJyR2VlZTLoGKAh2ccqgPL1Nec7fQesBX0A6AfyXJPr5ISzMh5p3guAtwO2tle3VMBxnwMW5eRk2IaGNdrYmASQMG5cfb/v3ej4QiGf8fFQy7SrN2yYZC2nATv6OBxk68/NyNhRXlXzVVV9BZE76kkIgXWAf+2Pmcyyqur7VHUqgKCVaswt4cz0he3J1ZDQ1C3ngeM6AhZfcsmpiqzVxsYk39Bh9L99zosn3HffFF8o5EdYNy4Uer9lemvNzwBE9dHmawxaMj4rfSlGvgo0KPby+M8ZrmgZKlOB9xW5/uNt0TGH63yAmDFHDE/pCo6bAl677vs3ue+8s8xJSUkc+PN7Pjrxkccnn37dtReI+j3Xnj3I58vKddWn4sV67ooZe1975YYz0xeqNl3Op8a0QQIuIr/sRSyUm53+x8mTJx/OE5YEYJOS2g1P70qOyyeo5Oqr721at/bm/jf9QHqdedYSx/VdPiZnxHYANepDAUN9c3rvxHvkdwACv5mYlfVBW+WurIiEjOFHCFfiXU2geMFZCajOrFfflrJNm54JDx/eZtx+/FaVZMCeFgweMsK6A59bAUvv/sU9pm/yDwb84IeCY/64ISt0Y0vTr1F2WUBb3Ae0urJmFiKnANukYe/9rcssq4ycAdyE5+89cCeEwF+tUCjeMnW0Cn+SBveBsqrqN7GUiMgKx0dkdHp6VETUP2DAQBsDhB2td83dhc+1Ni6rinyZmPs3HMcIzBmfHTrkzO/qSOQkG+M9YJe7Z+cg07//AHGpBDkB4ZpwVuhhgOW1tb167228VFVvQGje5e5D+CvKN4B+iMwIZ6UXlpSU+PoPTrtQRL8LTKeFkuLsBz7G2wOkqRLJzQl1y5u2jlkBq9dV51pj3gDto/Cz3OzQIadQmimrjKwDckQ1zwoXC/JdhTfDWemT12zYdLqqfkvRr/NpGPm7wB8S3MRHGqVpAsYuAna4e3YGWpomACoqak9ocOrPFTXnIDoaGIUXcnIAVa3MzcnIOda2diTH9AlaXlvby+5tmA/aB+Xh3Jz2Ox9ARB9Wld+KkftFyQaaRKSmvKomAhwwkim8CfrgJ9uiLzRPrGWVkesBBOa17nyAUaNSP8ILU3xudWXlcIv/LtDLAONtwqSfcaTbXu50TArota9xDp69/p2+vhaeqnYw1rziisas0vwW+lH1zMNCBco8x9h5YzMzN7bMtzYSSY3FOB9Q19g/tVd+aVXViUbNLYrMBk0C9in6e5ABAtdal0Oi5boLR62AVdXVg3D1/wBqlW+3uIbMrKmpORFrh1vrhERtphUTFnSSi57UsgxF3xcxjzqWeWOz09u9LqApxjXiyVgyITPzkLtCV69e3UcT+96gqj8F+ilYgadi1nfrxJHDtq2qjLwBgJH/dxRgLFcoJIA2GZHFZZWRfUD/8qqauLnXAIqKIPEwfbzw7QHq2f59gumjaleMzclot/MrKir6NsK1eKU90PKZ5xfYf41FfwrqGeuUhWL11vGjMiqgealbMx7A3yjd0h0Jx6AAteZCRAHx48VPNsdQNiJ8LEpU0SpFKg1a5SK7jBc8iyiz1DBBVG8Q5O9llZHf7kx05kwePry+dT0NvqSbRXWQwtpwVuhF8Oz89fivV/bdDDSPquUG5ozLCR104ceq6uosg0kGNo4ZM+KoQs47k6NWgIhmKhCzjEmM+eu0d5OfvXv3tnXrYWlV1YmOOm8DvVGeDOeE/ktVnyivrNmC8HPglgEN7gVlVZFbw1mhF5rzraquHiRu/GpL4Z61a98dUFZVc9N+tTeBnhBPtlSN3Jmbmf5Km3Ja5xxQUJYebRs7k2OZhAcA9NaGzaPGhtoNVC0pKfH51HlaYRhK2f6+id69n56V8t6yDRtewZqngNEofy+rjCzFmrvCI0csFpefAsko6wQmuAlNf0FJ9g4fyRtG9M5x2Qe/8YeiZwMILDt8uq7lqG1BKkQBYk6vwOHSDRgS/I3CecCH4Fx0emrqQacIw5mZ5e6enbmI3gB8AHwJYxetqoysVOT7AOKZs2/BMye8JnBuOCf97CN1fmlpqV/w3JGKs+ho29iZHL0xTqUcwKqd2V6Ssqrq6/Ec440GLg7nDN/cVrqJEyc2hbMy/tDgaDoidwK7BXIlfgjCGlGQRT6/nBzODk0enx0q+Swi+vr0Pxf4AkJFe3V3F45aAUbtkwAIs0tralpfgMSqqkg+Kr8DFOWaw72tqmpWbaiZkuTKQ+iBN/3A2klUHdBpsSYtKl8fmVdeWfPdlRWR0JHci1a42KuAw5qouwNHbYqIXztcApyNMG98Zvo3mw1d5VUbT1G1S/Au3mjTPFFdXZ2428q5KBcauFCbL00SLJ7SHJAfiGsX48glCt/g0CsudymsNkK5VV1tlFosdTGf3c7u3Z84ffu/B3KCozJ2bE77+4zuwDHZgkqrq9MdV1YAJwr8aUNW+g2Z6yLZ6sjrwBcUfSw3O+Mq8N7y1ZHIOHXNWaDn4M0LyS2Kq0J1HiKXAlkor4zPTp/2qUsRVm7YkCOumSLCFNAvgZxAO6iqiogAb4ezQ6ccS/s6k2M3xm3YMMlaswjop8ibBjIUHQzsQngISEEZBTIStJU/VspBF4qYf4zPGvFWeWXkjwrXAe+LuLnNf7ak3borK4dbnImKZAtMA77UOo0i1+dmp/+xjezdis9lji6vqB6ljnkRdPgRktaA/FNUlzp+CseEQgec8qsqa74n6H8CVlTzx+dkHHHVsmbNloGxxKaZYrkC4bzmdiisFNVcROpJdFLac9R0Jz53rMyaNVsGakLsLxb9WvynHSKyRNFXRYmIj4rWvuBmyiqrvw7yNGBEuXF8TuihttLBAWVPETQvvrxtPi66H+EFVfmtoN8EZoP8NZydftjT8d2F4xastLIykmfgN3h3dgJUq8hj1nWemDhy2CG3jpSt2zgVY1/Eu27mF+Hs0O3Nz0pKSnz9hgwdKbgni8pZCFM5+M9bWeANQZ6qd+xzp2Zk7IoH6G4Bkh2Vcd198m3muEaLzVd1QhtqLke5RbwzuOB5pRaKypOxBJZMTE//pLwq8hVV5gGJIM+BPoAwUpTRCrl4/1rdI60fKbJYlOIm6xSfMmr4Qee8yqpq7kH1Jyh/D+eELjqe7epIOiRcT1VldWVkKsI1iszEu8cTIIayWYQReuQ9yDaQZcAyhGXVmSNWtXfMqHTd5iGOiUWAXsbqxHEjM1Ydx+Z0KB0SnBtfQi4CFnnOEt/XgAKBcxENaYu0KuKK1Q9EZANqS43xL45p/erc7Oytn7U+x8TuwhsxL/w7dT508gGNkk2bkgbWN30LMV8GchTa+ptgTXjXAdSKEhVhiwq1IHXWtR+J4+z3SWy3GrNnv2p9QoxRIrJUoNEYO6q1V62706URw2WbNg0wDW6uq4RFNIxKGCGLQ6McjojA3eOzQz/rADE7lG4Xsl2yaVNSv6am4SbmC4rRoAppoqQqmiLepRx+vGNMvfCi3vohVO5McCa25djpoYceeuihhx566KGHHnrooYceuhP/C21ggfJ5r6dJAAAAAElFTkSuQmCC;" vertex="1" parent="2iNg4MN7d1wqHR_g2wRO-4">
          <mxGeometry width="83.6017277992278" height="83.6017277992278" as="geometry" />
        </mxCell>
        <mxCell id="2iNg4MN7d1wqHR_g2wRO-3" value="&lt;font style=&quot;font-size: 19px&quot;&gt;sql server&lt;/font&gt;" style="text;html=1;strokeColor=none;fillColor=none;align=center;verticalAlign=middle;whiteSpace=wrap;rounded=0;" vertex="1" parent="2iNg4MN7d1wqHR_g2wRO-4">
          <mxGeometry x="0.43184362934364573" y="100.58452956667465" width="63.97683397683398" height="34.36437634666027" as="geometry" />
        </mxCell>
        <mxCell id="2iNg4MN7d1wqHR_g2wRO-9" style="rounded=0;orthogonalLoop=1;jettySize=auto;html=1;exitX=1;exitY=0;exitDx=0;exitDy=0;entryX=0;entryY=0.5;entryDx=0;entryDy=0;entryPerimeter=0;" edge="1" parent="1" source="2iNg4MN7d1wqHR_g2wRO-1" target="mtnY_jctjg4N5cMxts-R-6">
          <mxGeometry relative="1" as="geometry" />
        </mxCell>
        <mxCell id="2iNg4MN7d1wqHR_g2wRO-25" style="edgeStyle=none;rounded=0;orthogonalLoop=1;jettySize=auto;html=1;exitX=1;exitY=0.5;exitDx=0;exitDy=0;entryX=0;entryY=0.5;entryDx=0;entryDy=0;" edge="1" parent="1" source="2iNg4MN7d1wqHR_g2wRO-17" target="2iNg4MN7d1wqHR_g2wRO-18">
          <mxGeometry relative="1" as="geometry" />
        </mxCell>
        <mxCell id="2iNg4MN7d1wqHR_g2wRO-17" value="&lt;font color=&quot;#ffffff&quot; size=&quot;1&quot;&gt;&lt;b style=&quot;font-size: 19px&quot;&gt;OGG for BigData&lt;/b&gt;&lt;/font&gt;" style="rounded=0;whiteSpace=wrap;html=1;strokeColor=#000000;strokeWidth=0;fillColor=#FF0000;" vertex="1" parent="1">
          <mxGeometry x="1260" y="224.48" width="190" height="43" as="geometry" />
        </mxCell>
        <mxCell id="2iNg4MN7d1wqHR_g2wRO-18" value="" style="shape=image;imageAspect=0;aspect=fixed;verticalLabelPosition=bottom;verticalAlign=top;strokeColor=#000000;strokeWidth=0;fillColor=#FF0000;image=data:image/png,iVBORw0KGgoAAAANSUhEUgAAAHwAAABICAYAAAA09ZEFAAAP9ElEQVR4nO2cCbRV0x/H9ytDZhmSoaQJydhEYSnDMlRIyVQhGTIky8KK+BchaxFiZcwUEStTylihgcyhDFEyE4nMw/b7/Ja9//uce8699/Xue73WPd+1Tt37zj777LN/v/3b399wboUVmAxlgzorewAZahaZwMsMmcDLDJnAywyZwMsMmcDLDJnAywyZwMsMmcDLDJnAywyZwMsMq1Wm8Zdffmneeecd89tvv5lmzZqZVq1aVde4MlQXbBF45ZVX7BFHHGGbNGlCokWP+vXr2w4dOtibb77Z/vXXX8V0k6EWoKDAb731VrvOOut4QScdhx9+uF26dGlNjDdDFZFX4BMnTrQVFRV5he2Onj172j///LOmxp1hBVHBP0mm/qeffjJt2rQxH374of/bXnvtZWQ1m4033thMnTrV3HvvvUbMuT9/1113mb59+5Z618lQSqRpwoQJEyIruF+/fvb333+PtBk7dqxdc801fZvOnTtn+3ktR6rATznlFC/IRo0aWWHoie0OPPBA365BgwZ24cKF1TXWDCVAqh/+ww8/+M/Nmzc3DRs2TGy36667+s/ffPON+frrr6tudjJUG1IFLqbaf16yZIn63kkIBbzWWmsZYfQlHF6GUiNV4G3btvWf3377bXPHHXfktHn33XfN5MmT/XcswTbbbJP3hpC8P/74w/zzzz8rMt4MVUWarf/000/thhtu6PdnfPErrrjCfvTRR/arr76yDz30kG3ZsmWE2J199tmpe8eUKVPsWWedZXfYYQfbuHFjK1uBveCCC+zMmTOrZa/KkIy8fvjIkSNz/O3NNtvMbr311jl/F1fNfvLJJzl9fP/997Z///6p/jss/8wzz8zxADJUD/IK/O+//7ZnnHFGwaDLBhtsYJ955pmc63/55Re7zz77FBW4we3jfhmqF3X/J0gz9xUVFebggw82G220kXnvvfcizB2sscYaZt9999WAy5577plz/eWXX27uvPPOyN/at29vDjroIBTNyNbg//7WW2+ZrbbaSoM9SVi6dKl57bXXjFgRvW6TTTYxq632/9wP/cEL6tSpo0SSg3EDsR6+Le24F//Xq1dPOUXdunXN8uXL9Xk/+OADvZb++R7i559/Nvfff78ZNWqUefjhh5XbNGnSxMjWZ0RZzZtvvmkWLFhgFi9ebFZffXWz3nrrpU3tykOxmvHdd99Z0Q2/ImUy7eOPP57ann1eJi1iBcaPH+9XsRA3e80111iZbN9mxx13tD/++GNif88995yGeTngAJ9//nnkPHxABKCf2SJOPvlkK0LR+2Clfv31V+374osvtkOHDrX33HOPffLJJ7VfcPXVV9tHH33UHnfccRpQioeJReHtLrvskmOZhgwZoufZknbaaSc/RpJKtRFF58NZLQcccID/Xr9+fQ21pmHWrFnqzjmcf/755qijjtIVCFgBgwcPNgMGDPBtWDGsvhTF9AcrOVx9hH+FTJrZs2frd9xD0rf87fnnn9dVx+oT4aoVGT58uBHBqqspgjcibPPtt98aEbKu+rhriYUQJdI+4uAaB6yFG2PcOtQWVKoAInSl3MSnAZfNAQF07do1sd3RRx8d+U7OPQnhBGKCQ9xyyy1m8803VzOLORbuoOa0T58+ut1su+225oEHHtC+UdTwGVCA7bffXk0+AqMf3EunmO5ZhKP47x07djSXXHKJEX4SMdvhuGqrwIsugCCZEmo4q2PevHmmU6dOie3Z3x3CyYsjPjGV9c9ZvQiuV69e5vXXXzdPPfWUadSokTn11FN1dYsbaDp37qwCQ7gzZswwX3zxhe67JIEQHpwCK4FiiulXrmKDnJJsH/4zioGC0S9wVsyuIu9kFhQ44dIbb7zRyP4WMbdMGoRu7733VnMXmnvQtGlT/xmyM2nSJCN7dE7/9913X+S7uH2VegC2mgsvvFBXLsSRVeyUiJWNQrJ9cG8CPvvvv7+afnEtTYMGDZRsoWTHHHOMmvItt9xShRoqIibdAWUKw8yQu1UK+Tb4yZMnW5m0otyqQYMGWZk4vU6YrG3dunXk/Prrr6+kzZEhSM4NN9xgRRgR0iaWJHEskCvXjjiAKFxJSEwxIMjk7i3mX2MLcYjF0/G7dhSO1EakrvAnnnjCHHbYYZF8dz5cd911fnWxX8YhDFn36zFjxqg5xPy+/PLLkTbCps26665b1P1WFux/pGxVRaLAP/vsM90DQ2FDbBAY+yH789y5c824ceN0n3SYMGFCpB9IDPsmvrPDCy+8oEcc/fr1M+JKVfmBMhRA0rInJm4Cc3zooYeqHx4HxQ4jRoywQspyTHybNm10S8BfJooWP+8OQqvcD5OYDyvTpFPq5e693XbbWSF1OW1WWZMO68S9cdhtt92UWK299to5ysIKHjJkiFoETLXDiSeeaGR/VtYLiLbh9z744IPKkiFKLkqHb96hQ4cqK24cEDTGF3fhRHF9hA+WnpbnDxESOD7n8zqKBXOABQ3T0AC/fuHChfo/53ARS4q4BohbE1mBIuyCWsMqJpLmriFZkg8rUuxYaIVfeeWVtlu3brZ79+5WmLi96qqrNMrmIG6XPf3003WFun6I2MnWZcV3ty+99JLt2rWrXn/CCSf4ZA6EDWvlrhG/24p3Ynv06KH3Ez9f29E+3wqfOnWqFU6k1lLcQHvsscfaRYsW+fNYy+uvv96K12NlMWgfssh0PI899phGKLmG67mv8J9KzyHIEbisRj/oevXqaZq0GISlTjD7UiMu8DC0etFFF0WUtH379irg8FqEG7YJD0Kmffr08d+FOFpxJfVaQrFp13EMHjxY2+UTOMLedNNN/Tk8ExTJhZnF9bWHHHJI6j0IP5NaDsPQbDMrghyTHvqcmMMwgJIP8kD+M+aqOiHj9qZw6NCh5rLLLvPniOixBbkIGFEyfOywMgdfX4SsCZk5c+ZoQCkMKokL6c14mKBJAj5+Etz1hHMhu4Ru3b1F2D7ZhFk/6aST1Cty4J677767hnnxZsQNNLL6i7pvQcQ1ABNu/tMiTAtJg0LA/2ZVuesobig1whXeokULu2zZMiWMJlgJmExSsiEwv2Eb4gUub88qfvbZZ7UoI2yzxRZb+H4WLFhgzzvvPH9OvA6do0mTJukqE4XSdnHSJnxFt4kwgUQtwaxZsyLjY0sI7922bVtt47aUjz/+WLcdE1v1+RJX+ZAj8NmzZ0dMx6WXXlqwE64RrfTXkLlKAqaLvefFF1/U15eS2G4aQoE3a9bMyqqITECvXr1yhM2Eh2XUVOImAQUITT4CdyYd4G24c61atUos1ggFzvwdf/zxkT5RFJ45fk2nTp0ifcMnksD+XS0CZxAhSUFDX3311dQOli9fHhk0R7t27bSkyUFYvLpe8ZIo0onDhw8v6jWlUODhgaLh9iW5dZRkuXakc9NKreNt4wIPI22QviQXNb7C4885d+7cnGvgGeHiuv3221PH9/7773syV1KBg5tuuikyYLRT9piclwzeeOMN26VLl1SyIe6ZmqymTZvmJT4777yzN41pSBO4uH46jiSce+65vl3Hjh3z9o9pd1aq1AIn/54ELF24fcp+nTq+OClcUYEnOpRijsx+++3nv+NnC4vUKBuJimHDhml2CuLBK0dpGDt2rEbQZB9KbQNIyvTs2dMTm8qA7BY5dQhYHCEBJVGSDyRB4j5xqXDttddq8iiOsPS7UIk35JmoZVWRKHAe/LbbbsvJbolGatkSVVEwTbJg4YBIG8KQCcMmgRJm4QSaeYNdy0ry5+bPn6+FCcWAexGscUxYthwjvnNO3D+cwEJKR1YQ5SkVWrdurZk3QGq5f//+kRqB+Phok6S0DgSSCMhUGfmW/5IlS5TohBmtpAOyQXAgvA5zGr55yj4Wr2rFFMuk+DYNGza0ixcvThxLaNIhQxC+gQMHRsaBPx5izJgx/hwl1+yDaaBUybUthUmHpU+fPj0yB3gvYaaNGAc+vztPlXAaIHzhfu9MOtssrJ5y7xkzZviMZRqKqmmjw3POOSfygwAoAS8PyqpOJF3s+e5h+Z+XE5MwatSoiNBwd5IQCpxxIHDq1MRf9X9nQkjNOuBSEa1y53v37p3YN4oHqSulwKmLA3g54fPBth0IvBDdc+dw25KUEqHG3Us3T8wrc4gnQR3dI488kveFzqKLGMHTTz/tbyjmOdWFiD8oufC01TVnzpzIg6SFctMibcQJwigW9wq9CsKkYf9HHnmknscK4SZCKkNFLpXAXaQNoeIyhv2HJA7LGFoB8u1YB8bHAbFLisIRAsdajBs3Tp8HL4i5uPvuu7WANA2VygKEiQhbIC8c1o5RY5ZGyMLyIVBMZM8GRYJUtYhX4SNi5N2pZXORtREjRkSqb0jhUtZEkWOLFi2UVC5atCin/xVB0nUkWkaPHq3jdIDHTJw4UT9369ZN6wAc4DIQYsbHQd1cGIVz4PlJsPDc/E+ZNZzBFVKmoVICj9epuWxYEsiyOTCIMJvmAIuGwToQSuQhkxCGayGLYe1bjx49tKjQgUkjnAkJoihRzJyGKh0gQMuWLdMDUAZF/t8BBQ0nLSSDTGxa3V1I+riHA+HU8ePHax2dA4pGZS+gzn3QoEGRrJwbH8/NdZBc5ie8F+FsQqwQUpRmypQpSrhdPX4Siipi5OHRMlaSAzVtrB5cuCRWTqyalwp4eQDwaxEM+LTTTtO6MAbJ9WEBhfj0Rshd4hgo+BdSppNCrDteGUOalr+R/sQSsdIpcGzXrp16G8S0KUlm4lEEN5FU9SBsUqZ8ZwLpJ1Rung93FCXHcoUT78A5hAbbZ77iL1TwWjUvMfC89I1LRuEkish4Ufzu3bsb2Yd1blBqWDzXibnWX8ziviwSVjTWibmgRo/KIRg8499jjz3yW8lUY/8fYM35MjmwX6JUSYBJxttD9po3b55TNEHQA5ZZE2B/JhZfW0H6GFJaHb+Zk1fguA1EwdKEHR5p0aRhw4YVdb34/SV/uAy5SBU47JJfZgqFQn6cn+jq27dv4huk06ZNS+wL1yGekXIHWbbQh89QvUgVOJmmUDC4HKG7g0sWz+CQnkwD73XhK+LPDxgwQDNquFr40hlqDqkCDxMP/BgA/mAcCCt8wY4kS00WF2aoPFLdMl55dYBxJ70ODGuEWTuQZIn7tBlqF6pcfhn3SUtR0Zmh+pAqHXxlB146kD09pw3O//Tp0/33xo0b6ztbGWovUgVOQMKB1B05Z9KQDoRKBw4cGCn+I4hQTJ13hpWH1N9axVTzdiiv3zoQ+SEMSbHAzJkzI68QEaHiFaIwhJmhFiIfo5s/f36iv510UPifofajYGh13rx5Wg+WJmiKHEePHl0TY81QAqSa9BBkfihdmjZtmpY5EdgnqI957927t2nZsmW1WJ8MpUdRAg+BsMk0kbHKsOqh0gLPsGoji5KUGTKBlxkygZcZMoGXGTKBlxkygZcZ/gWi3epOp5ty8AAAAABJRU5ErkJggg==;" vertex="1" parent="1">
          <mxGeometry x="1560" y="178.04999999999998" width="234" height="135.87" as="geometry" />
        </mxCell>
        <mxCell id="2iNg4MN7d1wqHR_g2wRO-24" style="edgeStyle=none;rounded=0;orthogonalLoop=1;jettySize=auto;html=1;exitX=1;exitY=0.5;exitDx=0;exitDy=0;entryX=0;entryY=0.5;entryDx=0;entryDy=0;" edge="1" parent="1" source="2iNg4MN7d1wqHR_g2wRO-19" target="2iNg4MN7d1wqHR_g2wRO-17">
          <mxGeometry relative="1" as="geometry" />
        </mxCell>
        <mxCell id="2iNg4MN7d1wqHR_g2wRO-26" value="&lt;font style=&quot;font-size: 19px&quot;&gt;&lt;b&gt;主库&lt;/b&gt;&lt;/font&gt;" style="text;html=1;strokeColor=none;fillColor=none;align=center;verticalAlign=middle;whiteSpace=wrap;rounded=0;" vertex="1" parent="1">
          <mxGeometry x="124" y="318" width="53" height="20" as="geometry" />
        </mxCell>
      </root>
    </mxGraphModel>
  </diagram>
</mxfile>
